<svg xmlns="http://www.w3.org/2000/svg" xmlns:xlink="http://www.w3.org/1999/xlink" width="1080" zoomAndPan="magnify" viewBox="0 0 810 1012.49997" height="1350" preserveAspectRatio="xMidYMid meet" version="1.0"><defs><filter x="0%" y="0%" width="100%" height="100%" id="bb175981cc"><feColorMatrix values="0 0 0 0 1 0 0 0 0 1 0 0 0 0 1 0 0 0 1 0" color-interpolation-filters="sRGB"/></filter><g/><clipPath id="c07d3554b5"><path d="M 0.199219 0 L 809.800781 0 L 809.800781 1012 L 0.199219 1012 Z M 0.199219 0 " clip-rule="nonzero"/></clipPath><clipPath id="204caed1f2"><path d="M 0.199219 0 L 809.800781 0 L 809.800781 1012 L 0.199219 1012 Z M 0.199219 0 " clip-rule="nonzero"/></clipPath><clipPath id="78870e5e90"><rect x="0" width="810" y="0" height="1012"/></clipPath><clipPath id="ed600e028d"><path d="M 678.574219 47 L 768.527344 47 L 768.527344 130.4375 L 678.574219 130.4375 Z M 678.574219 47 " clip-rule="nonzero"/></clipPath><mask id="02295309c8"><g filter="url(#bb175981cc)"><rect x="-81" width="972" fill="#000000" y="-101.249997" height="1214.999964" fill-opacity="0.55"/></g></mask><clipPath id="2be3dad1ce"><rect x="0" width="222" y="0" height="30"/></clipPath></defs><g clip-path="url(#c07d3554b5)"><path fill="#ffffff" d="M 0.199219 0 L 809.800781 0 L 809.800781 1012 L 0.199219 1012 Z M 0.199219 0 " fill-opacity="1" fill-rule="nonzero"/><path fill="#ffffff" d="M 0.199219 0 L 809.800781 0 L 809.800781 1012 L 0.199219 1012 Z M 0.199219 0 " fill-opacity="1" fill-rule="nonzero"/><g transform="matrix(1, 0, 0, 1, 0.000000000000000028, 0)"><g clip-path="url(#78870e5e90)"><g clip-path="url(#204caed1f2)"><path fill="#2c5159" d="M 0.199219 0 L 809.800781 0 L 809.800781 1012 L 0.199219 1012 Z M 0.199219 0 " fill-opacity="1" fill-rule="nonzero"/></g></g></g></g><g clip-path="url(#ed600e028d)"><path fill="#ece6d8" d="M 764.441406 129.503906 L 764.398438 129.511719 C 763.929688 129.589844 763.488281 129.660156 763.136719 129.746094 C 760.601562 130.175781 757.234375 130.671875 753.640625 130.671875 C 753.023438 130.671875 752.398438 130.65625 751.792969 130.625 C 751.742188 130.625 751.691406 130.582031 751.679688 130.53125 C 751.667969 130.480469 751.691406 130.421875 751.738281 130.394531 C 754.628906 128.703125 758.03125 127.339844 762.453125 126.105469 C 762.542969 126.078125 762.625 126.039062 762.699219 125.984375 C 756.039062 123.472656 751.296875 119.804688 748.21875 114.789062 C 745.171875 109.097656 745.222656 102.933594 745.269531 96.976562 L 745.273438 96.710938 C 745.425781 90.769531 746.171875 84.796875 746.894531 79.019531 L 746.90625 78.929688 C 747.152344 76.957031 747.40625 74.917969 747.632812 72.910156 C 747.753906 71.660156 747.898438 70.363281 748.039062 69.109375 L 748.046875 69.039062 C 748.546875 64.582031 749.066406 59.972656 748.671875 55.570312 C 748.667969 55.558594 748.667969 55.546875 748.664062 55.53125 L 748.617188 55.269531 C 748.457031 54.335938 748.339844 53.664062 747.769531 53.152344 C 747.734375 53.121094 747.699219 53.097656 747.65625 53.078125 C 747.242188 52.902344 746.757812 52.824219 746.234375 52.824219 C 743.925781 52.824219 740.792969 54.304688 738.949219 55.175781 L 738.800781 55.246094 C 734.359375 57.421875 731.175781 61.070312 729.84375 65.519531 C 729.84375 65.527344 729.835938 65.546875 729.835938 65.554688 C 729.832031 65.566406 729.828125 65.574219 729.824219 65.585938 C 729.636719 66.152344 729.484375 66.71875 729.371094 67.265625 C 729.367188 67.285156 729.363281 67.308594 729.363281 67.332031 L 729.234375 71.855469 C 729.1875 76.386719 729.042969 79.914062 728.882812 83.433594 C 728.417969 98.644531 728.121094 106.894531 728.003906 107.953125 C 727.902344 108.933594 727.355469 109.742188 726.421875 110.289062 C 724.886719 111.191406 722.613281 111.070312 721.25 110.015625 C 720.042969 109.082031 720.058594 108.5 720.125 106.050781 C 720.15625 104.945312 720.203125 103.328125 720.269531 101.289062 C 720.386719 97.570312 720.59375 91.664062 720.910156 84.632812 L 720.972656 83.257812 C 721.085938 79.574219 721.203125 75.671875 721.320312 71.734375 L 721.320312 71.535156 C 721.4375 57.953125 720.386719 54.671875 719.925781 53.890625 C 719.867188 53.785156 719.761719 53.714844 719.640625 53.691406 C 718.265625 53.46875 713.328125 55.136719 709.34375 57.914062 C 702.394531 62.75 701.714844 70.402344 701.054688 77.800781 C 701.054688 77.816406 701.050781 77.832031 701.054688 77.847656 C 701.125 81.027344 701.191406 84.84375 701.25 88.164062 L 701.441406 94.449219 C 701.585938 99.039062 701.710938 102.855469 701.785156 105.089844 L 701.792969 105.285156 C 701.8125 105.839844 701.824219 106.253906 701.832031 106.617188 L 701.851562 107.148438 C 701.855469 107.207031 701.851562 107.261719 701.835938 107.316406 C 701.828125 107.34375 701.824219 107.375 701.824219 107.402344 C 701.769531 108.496094 701.488281 108.886719 700.675781 109.511719 C 699.933594 110.078125 698.945312 110.394531 697.898438 110.394531 C 696.597656 110.394531 694.304688 109.785156 693.96875 107.5 C 693.96875 107.484375 693.964844 107.46875 693.960938 107.453125 C 693.949219 107.414062 693.945312 107.367188 693.945312 107.300781 L 693.941406 107.238281 C 693.9375 107.183594 693.933594 107.136719 693.933594 107.085938 L 693.777344 102.890625 C 693.707031 100.9375 693.566406 96.859375 693.394531 91.515625 C 693.386719 91.226562 693.367188 90.160156 693.339844 88.5625 L 693.335938 88.253906 C 693.105469 80.726562 693.0625 78.460938 693.128906 77.730469 C 693.128906 77.714844 693.128906 77.699219 693.128906 77.683594 C 693.019531 72.769531 692.910156 69.882812 692.8125 69.328125 L 692.667969 68.570312 C 691.050781 60.65625 683.617188 56.558594 681.867188 55.96875 C 681.84375 55.960938 681.824219 55.957031 681.800781 55.953125 C 680.691406 55.773438 679.734375 55.230469 679.175781 54.464844 C 678.746094 53.882812 678.574219 53.191406 678.683594 52.519531 C 678.964844 50.816406 680.894531 49.640625 683.078125 49.847656 C 686.265625 50.140625 692.910156 53.761719 697.089844 59.792969 C 697.167969 59.90625 697.292969 59.976562 697.4375 59.96875 C 697.574219 59.964844 697.699219 59.894531 697.773438 59.777344 C 699.378906 57.238281 701.4375 55.113281 704.070312 53.285156 C 704.558594 52.941406 716.148438 44.980469 723.804688 48.375 C 724.253906 48.570312 724.683594 48.808594 725.089844 49.089844 C 726.65625 50.171875 727.585938 51.738281 728.199219 54.324219 C 728.234375 54.464844 728.335938 54.574219 728.472656 54.617188 C 728.605469 54.664062 728.753906 54.632812 728.863281 54.542969 C 731.703125 52.140625 735.152344 50.285156 739.132812 49.015625 C 742.632812 47.742188 747.59375 47.027344 751.027344 48.847656 C 752.726562 49.746094 753.828125 51.152344 754.296875 53.015625 C 754.457031 53.683594 754.582031 54.53125 754.625 55.210938 C 754.757812 60.0625 753.910156 64.796875 753.09375 69.382812 C 752.863281 70.675781 752.625 72.015625 752.40625 73.359375 C 752.035156 75.429688 751.640625 77.496094 751.257812 79.496094 L 751.25 79.527344 C 750.167969 85.1875 749.046875 91.035156 748.515625 96.832031 C 748.144531 101.507812 747.679688 107.324219 749.507812 112.664062 C 750.261719 114.640625 751.644531 116.703125 753.613281 118.796875 L 753.65625 118.84375 C 753.667969 118.859375 753.679688 118.871094 753.695312 118.882812 C 753.710938 118.898438 753.730469 118.914062 753.761719 118.949219 C 756.167969 121.355469 759.363281 123.429688 763.011719 124.957031 C 762.496094 121.21875 762.640625 118.132812 763.464844 115.273438 C 763.480469 115.230469 763.519531 115.195312 763.585938 115.183594 C 763.628906 115.183594 763.664062 115.203125 763.6875 115.234375 C 765.988281 118.355469 767.445312 121.976562 768.410156 126.964844 L 768.414062 126.980469 C 768.621094 128.523438 767.179688 129.058594 764.441406 129.503906 Z M 764.441406 129.503906 " fill-opacity="1" fill-rule="nonzero"/></g><g mask="url(#02295309c8)"><g transform="matrix(1, 0, 0, 1, 45, 936)"><g clip-path="url(#2be3dad1ce)"><g fill="#ece6d8" fill-opacity="1"><g transform="translate(0.177699, 23.376224)"><g><path d="M 12.15625 4.65625 C 10.445312 4.65625 8.921875 4.40625 7.578125 3.90625 C 6.242188 3.414062 5.109375 2.707031 4.171875 1.78125 C 3.242188 0.851562 2.539062 -0.273438 2.0625 -1.609375 C 1.582031 -2.953125 1.34375 -4.460938 1.34375 -6.140625 C 1.34375 -7.796875 1.585938 -9.285156 2.078125 -10.609375 C 2.566406 -11.929688 3.269531 -13.0625 4.1875 -14 C 5.113281 -14.9375 6.226562 -15.648438 7.53125 -16.140625 C 8.84375 -16.640625 10.316406 -16.890625 11.953125 -16.890625 C 13.546875 -16.890625 14.953125 -16.628906 16.171875 -16.109375 C 17.398438 -15.597656 18.4375 -14.894531 19.28125 -14 C 20.125 -13.101562 20.765625 -12.078125 21.203125 -10.921875 C 21.640625 -9.765625 21.859375 -8.546875 21.859375 -7.265625 C 21.859375 -6.398438 21.800781 -5.554688 21.6875 -4.734375 C 21.582031 -3.921875 21.378906 -3.1875 21.078125 -2.53125 C 20.785156 -1.875 20.367188 -1.347656 19.828125 -0.953125 C 19.285156 -0.554688 18.582031 -0.359375 17.71875 -0.359375 C 17.238281 -0.359375 16.765625 -0.4375 16.296875 -0.59375 C 15.828125 -0.75 15.429688 -0.976562 15.109375 -1.28125 C 14.785156 -1.582031 14.585938 -1.945312 14.515625 -2.375 L 14.453125 -2.375 C 14.242188 -1.863281 13.875 -1.410156 13.34375 -1.015625 C 12.8125 -0.628906 12.101562 -0.4375 11.21875 -0.4375 C 10.175781 -0.4375 9.300781 -0.695312 8.59375 -1.21875 C 7.894531 -1.738281 7.363281 -2.4375 7 -3.3125 C 6.632812 -4.1875 6.453125 -5.160156 6.453125 -6.234375 C 6.453125 -7.296875 6.664062 -8.242188 7.09375 -9.078125 C 7.519531 -9.921875 8.097656 -10.582031 8.828125 -11.0625 C 9.566406 -11.550781 10.40625 -11.796875 11.34375 -11.796875 C 12.09375 -11.796875 12.71875 -11.648438 13.21875 -11.359375 C 13.726562 -11.078125 14.09375 -10.78125 14.3125 -10.46875 L 14.40625 -10.46875 L 14.40625 -11.515625 L 16.25 -11.515625 L 16.25 -3.8125 C 16.25 -3.3125 16.378906 -2.890625 16.640625 -2.546875 C 16.910156 -2.210938 17.296875 -2.046875 17.796875 -2.046875 C 18.347656 -2.046875 18.785156 -2.234375 19.109375 -2.609375 C 19.429688 -2.984375 19.65625 -3.554688 19.78125 -4.328125 C 19.914062 -5.097656 19.984375 -6.078125 19.984375 -7.265625 C 19.984375 -8.328125 19.8125 -9.332031 19.46875 -10.28125 C 19.132812 -11.238281 18.628906 -12.082031 17.953125 -12.8125 C 17.285156 -13.550781 16.441406 -14.128906 15.421875 -14.546875 C 14.410156 -14.960938 13.238281 -15.171875 11.90625 -15.171875 C 10.5625 -15.171875 9.359375 -14.96875 8.296875 -14.5625 C 7.234375 -14.15625 6.328125 -13.554688 5.578125 -12.765625 C 4.835938 -11.984375 4.273438 -11.03125 3.890625 -9.90625 C 3.503906 -8.789062 3.3125 -7.523438 3.3125 -6.109375 C 3.3125 -4.679688 3.503906 -3.40625 3.890625 -2.28125 C 4.273438 -1.164062 4.847656 -0.222656 5.609375 0.546875 C 6.367188 1.316406 7.300781 1.90625 8.40625 2.3125 C 9.519531 2.71875 10.789062 2.921875 12.21875 2.921875 C 12.863281 2.921875 13.484375 2.863281 14.078125 2.75 C 14.679688 2.632812 15.21875 2.503906 15.6875 2.359375 C 16.164062 2.210938 16.53125 2.097656 16.78125 2.015625 L 17.3125 3.671875 C 16.957031 3.804688 16.5 3.945312 15.9375 4.09375 C 15.382812 4.25 14.773438 4.378906 14.109375 4.484375 C 13.453125 4.597656 12.800781 4.65625 12.15625 4.65625 Z M 11.34375 -2.21875 C 12.070312 -2.21875 12.664062 -2.367188 13.125 -2.671875 C 13.582031 -2.984375 13.921875 -3.441406 14.140625 -4.046875 C 14.359375 -4.660156 14.46875 -5.421875 14.46875 -6.328125 C 14.46875 -7.234375 14.351562 -7.957031 14.125 -8.5 C 13.894531 -9.039062 13.546875 -9.425781 13.078125 -9.65625 C 12.617188 -9.894531 12.050781 -10.015625 11.375 -10.015625 C 10.726562 -10.015625 10.175781 -9.851562 9.71875 -9.53125 C 9.269531 -9.207031 8.921875 -8.765625 8.671875 -8.203125 C 8.421875 -7.640625 8.296875 -7.015625 8.296875 -6.328125 C 8.296875 -5.578125 8.398438 -4.890625 8.609375 -4.265625 C 8.828125 -3.648438 9.15625 -3.15625 9.59375 -2.78125 C 10.039062 -2.40625 10.625 -2.21875 11.34375 -2.21875 Z M 11.34375 -2.21875 "/></g></g><g transform="translate(23.392795, 23.376224)"><g><path d="M 3.859375 -7.703125 L 3.859375 0 L 1.765625 0 L 1.765625 -12.921875 L 3.765625 -12.921875 L 3.78125 -9.796875 L 3.4375 -9.796875 C 3.832031 -10.984375 4.394531 -11.832031 5.125 -12.34375 C 5.863281 -12.851562 6.726562 -13.109375 7.71875 -13.109375 C 8.59375 -13.109375 9.363281 -12.925781 10.03125 -12.5625 C 10.695312 -12.207031 11.21875 -11.664062 11.59375 -10.9375 C 11.976562 -10.207031 12.171875 -9.285156 12.171875 -8.171875 L 12.171875 0 L 10.078125 0 L 10.078125 -8.015625 C 10.078125 -9.023438 9.816406 -9.8125 9.296875 -10.375 C 8.773438 -10.945312 8.054688 -11.234375 7.140625 -11.234375 C 6.515625 -11.234375 5.953125 -11.097656 5.453125 -10.828125 C 4.960938 -10.566406 4.570312 -10.171875 4.28125 -9.640625 C 4 -9.117188 3.859375 -8.472656 3.859375 -7.703125 Z M 3.859375 -7.703125 "/></g></g><g transform="translate(37.331224, 23.376224)"><g><path d="M 5.453125 0.28125 C 4.628906 0.28125 3.882812 0.128906 3.21875 -0.171875 C 2.550781 -0.472656 2.019531 -0.921875 1.625 -1.515625 C 1.226562 -2.109375 1.03125 -2.832031 1.03125 -3.6875 C 1.03125 -4.425781 1.175781 -5.023438 1.46875 -5.484375 C 1.757812 -5.953125 2.148438 -6.316406 2.640625 -6.578125 C 3.128906 -6.847656 3.671875 -7.050781 4.265625 -7.1875 C 4.867188 -7.320312 5.472656 -7.425781 6.078125 -7.5 C 6.867188 -7.601562 7.503906 -7.679688 7.984375 -7.734375 C 8.460938 -7.796875 8.816406 -7.890625 9.046875 -8.015625 C 9.273438 -8.140625 9.390625 -8.363281 9.390625 -8.6875 L 9.390625 -8.765625 C 9.390625 -9.296875 9.285156 -9.75 9.078125 -10.125 C 8.867188 -10.5 8.5625 -10.785156 8.15625 -10.984375 C 7.75 -11.179688 7.25 -11.28125 6.65625 -11.28125 C 6.039062 -11.28125 5.507812 -11.179688 5.0625 -10.984375 C 4.625 -10.796875 4.265625 -10.550781 3.984375 -10.25 C 3.710938 -9.945312 3.519531 -9.628906 3.40625 -9.296875 L 1.375 -9.828125 C 1.644531 -10.617188 2.046875 -11.253906 2.578125 -11.734375 C 3.117188 -12.210938 3.738281 -12.5625 4.4375 -12.78125 C 5.144531 -13 5.867188 -13.109375 6.609375 -13.109375 C 7.109375 -13.109375 7.640625 -13.046875 8.203125 -12.921875 C 8.765625 -12.796875 9.289062 -12.570312 9.78125 -12.25 C 10.28125 -11.925781 10.6875 -11.46875 11 -10.875 C 11.3125 -10.289062 11.46875 -9.535156 11.46875 -8.609375 L 11.46875 0 L 9.421875 0 L 9.421875 -1.78125 L 9.296875 -1.78125 C 9.148438 -1.476562 8.914062 -1.164062 8.59375 -0.84375 C 8.269531 -0.519531 7.847656 -0.25 7.328125 -0.03125 C 6.816406 0.175781 6.191406 0.28125 5.453125 0.28125 Z M 5.796875 -1.5625 C 6.585938 -1.5625 7.25 -1.710938 7.78125 -2.015625 C 8.3125 -2.316406 8.710938 -2.707031 8.984375 -3.1875 C 9.253906 -3.675781 9.390625 -4.1875 9.390625 -4.71875 L 9.390625 -6.46875 C 9.304688 -6.375 9.128906 -6.285156 8.859375 -6.203125 C 8.585938 -6.128906 8.273438 -6.0625 7.921875 -6 C 7.566406 -5.945312 7.210938 -5.894531 6.859375 -5.84375 C 6.515625 -5.800781 6.222656 -5.765625 5.984375 -5.734375 C 5.484375 -5.671875 5.015625 -5.5625 4.578125 -5.40625 C 4.140625 -5.257812 3.785156 -5.039062 3.515625 -4.75 C 3.253906 -4.46875 3.125 -4.078125 3.125 -3.578125 C 3.125 -3.140625 3.238281 -2.769531 3.46875 -2.46875 C 3.695312 -2.175781 4.007812 -1.953125 4.40625 -1.796875 C 4.8125 -1.640625 5.273438 -1.5625 5.796875 -1.5625 Z M 5.796875 -1.5625 "/></g></g><g transform="translate(50.566874, 23.376224)"><g><path d="M 7.046875 0.28125 C 5.867188 0.28125 4.835938 0.00390625 3.953125 -0.546875 C 3.066406 -1.109375 2.375 -1.894531 1.875 -2.90625 C 1.382812 -3.914062 1.140625 -5.078125 1.140625 -6.390625 C 1.140625 -7.734375 1.382812 -8.910156 1.875 -9.921875 C 2.375 -10.929688 3.066406 -11.710938 3.953125 -12.265625 C 4.835938 -12.828125 5.867188 -13.109375 7.046875 -13.109375 C 8.222656 -13.109375 9.253906 -12.828125 10.140625 -12.265625 C 11.035156 -11.710938 11.726562 -10.929688 12.21875 -9.921875 C 12.71875 -8.910156 12.96875 -7.734375 12.96875 -6.390625 C 12.96875 -5.078125 12.71875 -3.914062 12.21875 -2.90625 C 11.726562 -1.894531 11.035156 -1.109375 10.140625 -0.546875 C 9.253906 0.00390625 8.222656 0.28125 7.046875 0.28125 Z M 7.046875 -1.578125 C 7.910156 -1.578125 8.625 -1.796875 9.1875 -2.234375 C 9.75 -2.671875 10.171875 -3.253906 10.453125 -3.984375 C 10.734375 -4.710938 10.875 -5.515625 10.875 -6.390625 C 10.875 -7.273438 10.734375 -8.085938 10.453125 -8.828125 C 10.171875 -9.566406 9.75 -10.15625 9.1875 -10.59375 C 8.625 -11.03125 7.910156 -11.25 7.046875 -11.25 C 6.203125 -11.25 5.5 -11.03125 4.9375 -10.59375 C 4.375 -10.15625 3.953125 -9.566406 3.671875 -8.828125 C 3.390625 -8.097656 3.25 -7.285156 3.25 -6.390625 C 3.25 -5.515625 3.390625 -4.710938 3.671875 -3.984375 C 3.953125 -3.253906 4.367188 -2.671875 4.921875 -2.234375 C 5.484375 -1.796875 6.191406 -1.578125 7.046875 -1.578125 Z M 7.046875 -1.578125 "/></g></g><g transform="translate(64.680997, 23.376224)"><g><path d="M 7.046875 0.28125 C 5.867188 0.28125 4.835938 0.00390625 3.953125 -0.546875 C 3.066406 -1.109375 2.375 -1.894531 1.875 -2.90625 C 1.382812 -3.914062 1.140625 -5.078125 1.140625 -6.390625 C 1.140625 -7.734375 1.382812 -8.910156 1.875 -9.921875 C 2.375 -10.929688 3.066406 -11.710938 3.953125 -12.265625 C 4.835938 -12.828125 5.867188 -13.109375 7.046875 -13.109375 C 7.691406 -13.109375 8.300781 -13.019531 8.875 -12.84375 C 9.445312 -12.675781 9.960938 -12.429688 10.421875 -12.109375 C 10.878906 -11.785156 11.269531 -11.390625 11.59375 -10.921875 C 11.925781 -10.453125 12.171875 -9.925781 12.328125 -9.34375 L 10.3125 -8.90625 C 10.21875 -9.25 10.078125 -9.5625 9.890625 -9.84375 C 9.703125 -10.125 9.46875 -10.367188 9.1875 -10.578125 C 8.914062 -10.796875 8.597656 -10.960938 8.234375 -11.078125 C 7.878906 -11.191406 7.484375 -11.25 7.046875 -11.25 C 6.203125 -11.25 5.5 -11.03125 4.9375 -10.59375 C 4.375 -10.15625 3.953125 -9.566406 3.671875 -8.828125 C 3.390625 -8.097656 3.25 -7.285156 3.25 -6.390625 C 3.25 -5.515625 3.390625 -4.710938 3.671875 -3.984375 C 3.953125 -3.253906 4.367188 -2.671875 4.921875 -2.234375 C 5.484375 -1.796875 6.191406 -1.578125 7.046875 -1.578125 C 7.484375 -1.578125 7.882812 -1.632812 8.25 -1.75 C 8.613281 -1.875 8.9375 -2.046875 9.21875 -2.265625 C 9.5 -2.484375 9.734375 -2.738281 9.921875 -3.03125 C 10.109375 -3.332031 10.25 -3.660156 10.34375 -4.015625 L 12.359375 -3.578125 C 12.203125 -2.984375 11.960938 -2.453125 11.640625 -1.984375 C 11.316406 -1.515625 10.921875 -1.109375 10.453125 -0.765625 C 9.984375 -0.421875 9.457031 -0.160156 8.875 0.015625 C 8.300781 0.191406 7.691406 0.28125 7.046875 0.28125 Z M 7.046875 0.28125 "/></g></g><g transform="translate(78.127481, 23.376224)"><g><path d="M 6.234375 0.171875 C 5.359375 0.171875 4.582031 -0.00390625 3.90625 -0.359375 C 3.238281 -0.722656 2.710938 -1.269531 2.328125 -2 C 1.953125 -2.738281 1.765625 -3.65625 1.765625 -4.75 L 1.765625 -12.921875 L 3.859375 -12.921875 L 3.859375 -4.9375 C 3.859375 -3.90625 4.117188 -3.109375 4.640625 -2.546875 C 5.171875 -1.984375 5.890625 -1.703125 6.796875 -1.703125 C 7.421875 -1.703125 7.976562 -1.832031 8.46875 -2.09375 C 8.96875 -2.363281 9.359375 -2.757812 9.640625 -3.28125 C 9.929688 -3.8125 10.078125 -4.457031 10.078125 -5.21875 L 10.078125 -12.921875 L 12.171875 -12.921875 L 12.171875 0 L 10.171875 0 L 10.171875 -3.140625 L 10.5 -3.140625 C 10.09375 -1.929688 9.519531 -1.078125 8.78125 -0.578125 C 8.039062 -0.078125 7.191406 0.171875 6.234375 0.171875 Z M 6.234375 0.171875 "/></g></g><g transform="translate(92.077622, 23.376224)"><g><path d="M 3.859375 -17.453125 L 3.859375 0 L 1.765625 0 L 1.765625 -17.453125 Z M 3.859375 -17.453125 "/></g></g><g transform="translate(97.699846, 23.376224)"><g><path d="M 1.765625 4.890625 L 1.765625 -12.921875 L 3.78125 -12.921875 L 3.78125 -10.890625 L 3.96875 -10.890625 C 4.144531 -11.179688 4.378906 -11.5 4.671875 -11.84375 C 4.972656 -12.1875 5.367188 -12.484375 5.859375 -12.734375 C 6.359375 -12.984375 7 -13.109375 7.78125 -13.109375 C 8.875 -13.109375 9.832031 -12.835938 10.65625 -12.296875 C 11.488281 -11.753906 12.132812 -10.984375 12.59375 -9.984375 C 13.0625 -8.984375 13.296875 -7.800781 13.296875 -6.4375 C 13.296875 -5.070312 13.0625 -3.882812 12.59375 -2.875 C 12.132812 -1.875 11.492188 -1.097656 10.671875 -0.546875 C 9.847656 -0.00390625 8.890625 0.265625 7.796875 0.265625 C 7.035156 0.265625 6.40625 0.140625 5.90625 -0.109375 C 5.40625 -0.359375 5.003906 -0.660156 4.703125 -1.015625 C 4.398438 -1.367188 4.160156 -1.691406 3.984375 -1.984375 L 3.859375 -1.984375 L 3.859375 4.890625 Z M 7.484375 -1.59375 C 8.273438 -1.59375 8.945312 -1.800781 9.5 -2.21875 C 10.050781 -2.644531 10.46875 -3.222656 10.75 -3.953125 C 11.039062 -4.691406 11.1875 -5.523438 11.1875 -6.453125 C 11.1875 -7.378906 11.046875 -8.203125 10.765625 -8.921875 C 10.484375 -9.648438 10.066406 -10.21875 9.515625 -10.625 C 8.960938 -11.039062 8.285156 -11.25 7.484375 -11.25 C 6.679688 -11.25 6.007812 -11.046875 5.46875 -10.640625 C 4.925781 -10.242188 4.507812 -9.6875 4.21875 -8.96875 C 3.9375 -8.25 3.796875 -7.410156 3.796875 -6.453125 C 3.796875 -5.492188 3.9375 -4.648438 4.21875 -3.921875 C 4.507812 -3.191406 4.929688 -2.617188 5.484375 -2.203125 C 6.035156 -1.796875 6.703125 -1.59375 7.484375 -1.59375 Z M 7.484375 -1.59375 "/></g></g><g transform="translate(112.141931, 23.376224)"><g><path d="M 7.171875 0.28125 C 5.929688 0.28125 4.859375 0 3.953125 -0.5625 C 3.046875 -1.125 2.347656 -1.90625 1.859375 -2.90625 C 1.378906 -3.90625 1.140625 -5.0625 1.140625 -6.375 C 1.140625 -7.695312 1.378906 -8.863281 1.859375 -9.875 C 2.335938 -10.894531 3.015625 -11.6875 3.890625 -12.25 C 4.773438 -12.820312 5.796875 -13.109375 6.953125 -13.109375 C 7.691406 -13.109375 8.398438 -12.984375 9.078125 -12.734375 C 9.753906 -12.492188 10.363281 -12.109375 10.90625 -11.578125 C 11.445312 -11.054688 11.867188 -10.378906 12.171875 -9.546875 C 12.484375 -8.722656 12.640625 -7.738281 12.640625 -6.59375 L 12.640625 -5.78125 L 2.484375 -5.78125 L 2.484375 -7.546875 L 11.515625 -7.546875 L 10.5625 -6.90625 C 10.5625 -7.757812 10.421875 -8.515625 10.140625 -9.171875 C 9.867188 -9.828125 9.460938 -10.335938 8.921875 -10.703125 C 8.390625 -11.078125 7.734375 -11.265625 6.953125 -11.265625 C 6.179688 -11.265625 5.515625 -11.078125 4.953125 -10.703125 C 4.398438 -10.328125 3.972656 -9.828125 3.671875 -9.203125 C 3.378906 -8.585938 3.234375 -7.910156 3.234375 -7.171875 L 3.234375 -6.0625 C 3.234375 -5.125 3.394531 -4.316406 3.71875 -3.640625 C 4.039062 -2.972656 4.5 -2.460938 5.09375 -2.109375 C 5.695312 -1.753906 6.394531 -1.578125 7.1875 -1.578125 C 7.71875 -1.578125 8.195312 -1.65625 8.625 -1.8125 C 9.050781 -1.96875 9.414062 -2.195312 9.71875 -2.5 C 10.019531 -2.8125 10.25 -3.1875 10.40625 -3.625 L 12.4375 -3.1875 C 12.238281 -2.507812 11.894531 -1.90625 11.40625 -1.375 C 10.925781 -0.851562 10.328125 -0.445312 9.609375 -0.15625 C 8.890625 0.132812 8.078125 0.28125 7.171875 0.28125 Z M 7.171875 0.28125 "/></g></g><g transform="translate(125.881239, 23.376224)"><g><path d="M 7.046875 0.28125 C 5.867188 0.28125 4.835938 0.00390625 3.953125 -0.546875 C 3.066406 -1.109375 2.375 -1.894531 1.875 -2.90625 C 1.382812 -3.914062 1.140625 -5.078125 1.140625 -6.390625 C 1.140625 -7.734375 1.382812 -8.910156 1.875 -9.921875 C 2.375 -10.929688 3.066406 -11.710938 3.953125 -12.265625 C 4.835938 -12.828125 5.867188 -13.109375 7.046875 -13.109375 C 8.222656 -13.109375 9.253906 -12.828125 10.140625 -12.265625 C 11.035156 -11.710938 11.726562 -10.929688 12.21875 -9.921875 C 12.71875 -8.910156 12.96875 -7.734375 12.96875 -6.390625 C 12.96875 -5.078125 12.71875 -3.914062 12.21875 -2.90625 C 11.726562 -1.894531 11.035156 -1.109375 10.140625 -0.546875 C 9.253906 0.00390625 8.222656 0.28125 7.046875 0.28125 Z M 7.046875 -1.578125 C 7.910156 -1.578125 8.625 -1.796875 9.1875 -2.234375 C 9.75 -2.671875 10.171875 -3.253906 10.453125 -3.984375 C 10.734375 -4.710938 10.875 -5.515625 10.875 -6.390625 C 10.875 -7.273438 10.734375 -8.085938 10.453125 -8.828125 C 10.171875 -9.566406 9.75 -10.15625 9.1875 -10.59375 C 8.625 -11.03125 7.910156 -11.25 7.046875 -11.25 C 6.203125 -11.25 5.5 -11.03125 4.9375 -10.59375 C 4.375 -10.15625 3.953125 -9.566406 3.671875 -8.828125 C 3.390625 -8.097656 3.25 -7.285156 3.25 -6.390625 C 3.25 -5.515625 3.390625 -4.710938 3.671875 -3.984375 C 3.953125 -3.253906 4.367188 -2.671875 4.921875 -2.234375 C 5.484375 -1.796875 6.191406 -1.578125 7.046875 -1.578125 Z M 7.046875 -1.578125 "/></g></g><g transform="translate(139.995362, 23.376224)"><g><path d="M 6.1875 0.28125 C 5.289062 0.28125 4.488281 0.144531 3.78125 -0.125 C 3.082031 -0.394531 2.503906 -0.796875 2.046875 -1.328125 C 1.597656 -1.859375 1.3125 -2.515625 1.1875 -3.296875 L 3.171875 -3.671875 C 3.335938 -2.941406 3.675781 -2.398438 4.1875 -2.046875 C 4.695312 -1.703125 5.351562 -1.53125 6.15625 -1.53125 C 7.050781 -1.53125 7.765625 -1.722656 8.296875 -2.109375 C 8.835938 -2.492188 9.109375 -2.957031 9.109375 -3.5 C 9.109375 -3.957031 8.945312 -4.332031 8.625 -4.625 C 8.300781 -4.925781 7.828125 -5.144531 7.203125 -5.28125 L 5.0625 -5.796875 C 3.882812 -6.066406 3.003906 -6.492188 2.421875 -7.078125 C 1.847656 -7.671875 1.5625 -8.425781 1.5625 -9.34375 C 1.5625 -10.082031 1.765625 -10.734375 2.171875 -11.296875 C 2.578125 -11.867188 3.140625 -12.3125 3.859375 -12.625 C 4.578125 -12.945312 5.398438 -13.109375 6.328125 -13.109375 C 7.210938 -13.109375 7.972656 -12.96875 8.609375 -12.6875 C 9.253906 -12.40625 9.773438 -12.015625 10.171875 -11.515625 C 10.566406 -11.023438 10.84375 -10.453125 11 -9.796875 L 9.09375 -9.40625 C 8.945312 -9.914062 8.65625 -10.363281 8.21875 -10.75 C 7.789062 -11.144531 7.160156 -11.34375 6.328125 -11.34375 C 5.554688 -11.34375 4.914062 -11.160156 4.40625 -10.796875 C 3.90625 -10.441406 3.65625 -9.992188 3.65625 -9.453125 C 3.65625 -8.960938 3.828125 -8.570312 4.171875 -8.28125 C 4.523438 -8 5.066406 -7.769531 5.796875 -7.59375 L 7.78125 -7.125 C 8.96875 -6.84375 9.84375 -6.410156 10.40625 -5.828125 C 10.96875 -5.253906 11.25 -4.519531 11.25 -3.625 C 11.25 -2.851562 11.035156 -2.175781 10.609375 -1.59375 C 10.179688 -1.007812 9.585938 -0.550781 8.828125 -0.21875 C 8.066406 0.113281 7.1875 0.28125 6.1875 0.28125 Z M 6.1875 0.28125 "/></g></g><g transform="translate(152.375966, 23.376224)"><g><path d="M 5.453125 0.28125 C 4.628906 0.28125 3.882812 0.128906 3.21875 -0.171875 C 2.550781 -0.472656 2.019531 -0.921875 1.625 -1.515625 C 1.226562 -2.109375 1.03125 -2.832031 1.03125 -3.6875 C 1.03125 -4.425781 1.175781 -5.023438 1.46875 -5.484375 C 1.757812 -5.953125 2.148438 -6.316406 2.640625 -6.578125 C 3.128906 -6.847656 3.671875 -7.050781 4.265625 -7.1875 C 4.867188 -7.320312 5.472656 -7.425781 6.078125 -7.5 C 6.867188 -7.601562 7.503906 -7.679688 7.984375 -7.734375 C 8.460938 -7.796875 8.816406 -7.890625 9.046875 -8.015625 C 9.273438 -8.140625 9.390625 -8.363281 9.390625 -8.6875 L 9.390625 -8.765625 C 9.390625 -9.296875 9.285156 -9.75 9.078125 -10.125 C 8.867188 -10.5 8.5625 -10.785156 8.15625 -10.984375 C 7.75 -11.179688 7.25 -11.28125 6.65625 -11.28125 C 6.039062 -11.28125 5.507812 -11.179688 5.0625 -10.984375 C 4.625 -10.796875 4.265625 -10.550781 3.984375 -10.25 C 3.710938 -9.945312 3.519531 -9.628906 3.40625 -9.296875 L 1.375 -9.828125 C 1.644531 -10.617188 2.046875 -11.253906 2.578125 -11.734375 C 3.117188 -12.210938 3.738281 -12.5625 4.4375 -12.78125 C 5.144531 -13 5.867188 -13.109375 6.609375 -13.109375 C 7.109375 -13.109375 7.640625 -13.046875 8.203125 -12.921875 C 8.765625 -12.796875 9.289062 -12.570312 9.78125 -12.25 C 10.28125 -11.925781 10.6875 -11.46875 11 -10.875 C 11.3125 -10.289062 11.46875 -9.535156 11.46875 -8.609375 L 11.46875 0 L 9.421875 0 L 9.421875 -1.78125 L 9.296875 -1.78125 C 9.148438 -1.476562 8.914062 -1.164062 8.59375 -0.84375 C 8.269531 -0.519531 7.847656 -0.25 7.328125 -0.03125 C 6.816406 0.175781 6.191406 0.28125 5.453125 0.28125 Z M 5.796875 -1.5625 C 6.585938 -1.5625 7.25 -1.710938 7.78125 -2.015625 C 8.3125 -2.316406 8.710938 -2.707031 8.984375 -3.1875 C 9.253906 -3.675781 9.390625 -4.1875 9.390625 -4.71875 L 9.390625 -6.46875 C 9.304688 -6.375 9.128906 -6.285156 8.859375 -6.203125 C 8.585938 -6.128906 8.273438 -6.0625 7.921875 -6 C 7.566406 -5.945312 7.210938 -5.894531 6.859375 -5.84375 C 6.515625 -5.800781 6.222656 -5.765625 5.984375 -5.734375 C 5.484375 -5.671875 5.015625 -5.5625 4.578125 -5.40625 C 4.140625 -5.257812 3.785156 -5.039062 3.515625 -4.75 C 3.253906 -4.46875 3.125 -4.078125 3.125 -3.578125 C 3.125 -3.140625 3.238281 -2.769531 3.46875 -2.46875 C 3.695312 -2.175781 4.007812 -1.953125 4.40625 -1.796875 C 4.8125 -1.640625 5.273438 -1.5625 5.796875 -1.5625 Z M 5.796875 -1.5625 "/></g></g><g transform="translate(165.611617, 23.376224)"><g><path d="M 6.1875 0.28125 C 5.289062 0.28125 4.488281 0.144531 3.78125 -0.125 C 3.082031 -0.394531 2.503906 -0.796875 2.046875 -1.328125 C 1.597656 -1.859375 1.3125 -2.515625 1.1875 -3.296875 L 3.171875 -3.671875 C 3.335938 -2.941406 3.675781 -2.398438 4.1875 -2.046875 C 4.695312 -1.703125 5.351562 -1.53125 6.15625 -1.53125 C 7.050781 -1.53125 7.765625 -1.722656 8.296875 -2.109375 C 8.835938 -2.492188 9.109375 -2.957031 9.109375 -3.5 C 9.109375 -3.957031 8.945312 -4.332031 8.625 -4.625 C 8.300781 -4.925781 7.828125 -5.144531 7.203125 -5.28125 L 5.0625 -5.796875 C 3.882812 -6.066406 3.003906 -6.492188 2.421875 -7.078125 C 1.847656 -7.671875 1.5625 -8.425781 1.5625 -9.34375 C 1.5625 -10.082031 1.765625 -10.734375 2.171875 -11.296875 C 2.578125 -11.867188 3.140625 -12.3125 3.859375 -12.625 C 4.578125 -12.945312 5.398438 -13.109375 6.328125 -13.109375 C 7.210938 -13.109375 7.972656 -12.96875 8.609375 -12.6875 C 9.253906 -12.40625 9.773438 -12.015625 10.171875 -11.515625 C 10.566406 -11.023438 10.84375 -10.453125 11 -9.796875 L 9.09375 -9.40625 C 8.945312 -9.914062 8.65625 -10.363281 8.21875 -10.75 C 7.789062 -11.144531 7.160156 -11.34375 6.328125 -11.34375 C 5.554688 -11.34375 4.914062 -11.160156 4.40625 -10.796875 C 3.90625 -10.441406 3.65625 -9.992188 3.65625 -9.453125 C 3.65625 -8.960938 3.828125 -8.570312 4.171875 -8.28125 C 4.523438 -8 5.066406 -7.769531 5.796875 -7.59375 L 7.78125 -7.125 C 8.96875 -6.84375 9.84375 -6.410156 10.40625 -5.828125 C 10.96875 -5.253906 11.25 -4.519531 11.25 -3.625 C 11.25 -2.851562 11.035156 -2.175781 10.609375 -1.59375 C 10.179688 -1.007812 9.585938 -0.550781 8.828125 -0.21875 C 8.066406 0.113281 7.1875 0.28125 6.1875 0.28125 Z M 6.1875 0.28125 "/></g></g></g><g fill="#ece6d8" fill-opacity="1"><g transform="translate(178.039076, 23.376224)"><g><path d="M 6.984375 -12.921875 L 6.984375 -11.15625 L 0.21875 -11.15625 L 0.21875 -12.921875 Z M 2.234375 -16.109375 L 4.328125 -16.109375 L 4.328125 -3.296875 C 4.328125 -2.742188 4.441406 -2.335938 4.671875 -2.078125 C 4.898438 -1.828125 5.285156 -1.703125 5.828125 -1.703125 C 5.972656 -1.703125 6.144531 -1.710938 6.34375 -1.734375 C 6.550781 -1.765625 6.742188 -1.789062 6.921875 -1.8125 L 7.265625 -0.0625 C 7.046875 0 6.800781 0.046875 6.53125 0.078125 C 6.257812 0.109375 5.992188 0.125 5.734375 0.125 C 4.617188 0.125 3.753906 -0.15625 3.140625 -0.71875 C 2.535156 -1.289062 2.234375 -2.097656 2.234375 -3.140625 Z M 2.234375 -16.109375 "/></g></g><g transform="translate(185.804772, 23.376224)"><g><path d="M 1.765625 0 L 1.765625 -12.921875 L 3.765625 -12.921875 L 3.765625 -10.9375 L 3.890625 -10.9375 C 4.128906 -11.59375 4.546875 -12.117188 5.140625 -12.515625 C 5.734375 -12.910156 6.414062 -13.109375 7.1875 -13.109375 C 7.351562 -13.109375 7.535156 -13.101562 7.734375 -13.09375 C 7.941406 -13.09375 8.097656 -13.085938 8.203125 -13.078125 L 8.203125 -10.984375 C 8.140625 -11.003906 7.984375 -11.03125 7.734375 -11.0625 C 7.492188 -11.09375 7.234375 -11.109375 6.953125 -11.109375 C 6.367188 -11.109375 5.835938 -10.984375 5.359375 -10.734375 C 4.890625 -10.484375 4.519531 -10.128906 4.25 -9.671875 C 3.988281 -9.222656 3.859375 -8.6875 3.859375 -8.0625 L 3.859375 0 Z M 1.765625 0 "/></g></g></g><g fill="#ece6d8" fill-opacity="1"><g transform="translate(194.179542, 23.376224)"><g><path d="M 7.046875 0.28125 C 5.867188 0.28125 4.835938 0.00390625 3.953125 -0.546875 C 3.066406 -1.109375 2.375 -1.894531 1.875 -2.90625 C 1.382812 -3.914062 1.140625 -5.078125 1.140625 -6.390625 C 1.140625 -7.734375 1.382812 -8.910156 1.875 -9.921875 C 2.375 -10.929688 3.066406 -11.710938 3.953125 -12.265625 C 4.835938 -12.828125 5.867188 -13.109375 7.046875 -13.109375 C 8.222656 -13.109375 9.253906 -12.828125 10.140625 -12.265625 C 11.035156 -11.710938 11.726562 -10.929688 12.21875 -9.921875 C 12.71875 -8.910156 12.96875 -7.734375 12.96875 -6.390625 C 12.96875 -5.078125 12.71875 -3.914062 12.21875 -2.90625 C 11.726562 -1.894531 11.035156 -1.109375 10.140625 -0.546875 C 9.253906 0.00390625 8.222656 0.28125 7.046875 0.28125 Z M 7.046875 -1.578125 C 7.910156 -1.578125 8.625 -1.796875 9.1875 -2.234375 C 9.75 -2.671875 10.171875 -3.253906 10.453125 -3.984375 C 10.734375 -4.710938 10.875 -5.515625 10.875 -6.390625 C 10.875 -7.273438 10.734375 -8.085938 10.453125 -8.828125 C 10.171875 -9.566406 9.75 -10.15625 9.1875 -10.59375 C 8.625 -11.03125 7.910156 -11.25 7.046875 -11.25 C 6.203125 -11.25 5.5 -11.03125 4.9375 -10.59375 C 4.375 -10.15625 3.953125 -9.566406 3.671875 -8.828125 C 3.390625 -8.097656 3.25 -7.285156 3.25 -6.390625 C 3.25 -5.515625 3.390625 -4.710938 3.671875 -3.984375 C 3.953125 -3.253906 4.367188 -2.671875 4.921875 -2.234375 C 5.484375 -1.796875 6.191406 -1.578125 7.046875 -1.578125 Z M 7.046875 -1.578125 "/></g></g><g transform="translate(208.293664, 23.376224)"><g><path d="M 6.1875 0.28125 C 5.289062 0.28125 4.488281 0.144531 3.78125 -0.125 C 3.082031 -0.394531 2.503906 -0.796875 2.046875 -1.328125 C 1.597656 -1.859375 1.3125 -2.515625 1.1875 -3.296875 L 3.171875 -3.671875 C 3.335938 -2.941406 3.675781 -2.398438 4.1875 -2.046875 C 4.695312 -1.703125 5.351562 -1.53125 6.15625 -1.53125 C 7.050781 -1.53125 7.765625 -1.722656 8.296875 -2.109375 C 8.835938 -2.492188 9.109375 -2.957031 9.109375 -3.5 C 9.109375 -3.957031 8.945312 -4.332031 8.625 -4.625 C 8.300781 -4.925781 7.828125 -5.144531 7.203125 -5.28125 L 5.0625 -5.796875 C 3.882812 -6.066406 3.003906 -6.492188 2.421875 -7.078125 C 1.847656 -7.671875 1.5625 -8.425781 1.5625 -9.34375 C 1.5625 -10.082031 1.765625 -10.734375 2.171875 -11.296875 C 2.578125 -11.867188 3.140625 -12.3125 3.859375 -12.625 C 4.578125 -12.945312 5.398438 -13.109375 6.328125 -13.109375 C 7.210938 -13.109375 7.972656 -12.96875 8.609375 -12.6875 C 9.253906 -12.40625 9.773438 -12.015625 10.171875 -11.515625 C 10.566406 -11.023438 10.84375 -10.453125 11 -9.796875 L 9.09375 -9.40625 C 8.945312 -9.914062 8.65625 -10.363281 8.21875 -10.75 C 7.789062 -11.144531 7.160156 -11.34375 6.328125 -11.34375 C 5.554688 -11.34375 4.914062 -11.160156 4.40625 -10.796875 C 3.90625 -10.441406 3.65625 -9.992188 3.65625 -9.453125 C 3.65625 -8.960938 3.828125 -8.570312 4.171875 -8.28125 C 4.523438 -8 5.066406 -7.769531 5.796875 -7.59375 L 7.78125 -7.125 C 8.96875 -6.84375 9.84375 -6.410156 10.40625 -5.828125 C 10.96875 -5.253906 11.25 -4.519531 11.25 -3.625 C 11.25 -2.851562 11.035156 -2.175781 10.609375 -1.59375 C 10.179688 -1.007812 9.585938 -0.550781 8.828125 -0.21875 C 8.066406 0.113281 7.1875 0.28125 6.1875 0.28125 Z M 6.1875 0.28125 "/></g></g></g></g></g></g></svg>